<svg xmlns="http://www.w3.org/2000/svg" viewBox="0 0 64 64" role="img" aria-label="Swarna Roots">
  <defs>
    <linearGradient id="gold" x1="10" y1="8" x2="56" y2="56" gradientUnits="userSpaceOnUse">
      <stop offset="0" stop-color="#fff7da"/>
      <stop offset="0.6" stop-color="#e7c365"/>
      <stop offset="1" stop-color="#c58f2d"/>
    </linearGradient>
  </defs>
  <rect x="4" y="4" width="56" height="56" rx="14" fill="#fffdf7"/>
  <rect x="6.5" y="6.5" width="51" height="51" rx="12" fill="url(#gold)" stroke="#c58f2d" stroke-width="2.5"/>
  <path d="M39 14c8 1 13 6 14 14-8-1-13-6-14-14Z" fill="#2f7a54"/>
  <path d="M18 46V19h11c7 0 12 3 12 9 0 4-2 7-6 9l8 6h-11l-7-5v8H18Zm7-14h4c3 0 5-1 5-4s-2-4-5-4h-4v8Z" fill="#203529"/>
  <path d="M43 19h6v21h13v6H43V19Z" fill="#203529"/>
</svg>
